#!OML:ASF H:\Dans Jumps\Project 1\Capture day 1\Session 1\subject.ASF
:FULLY-SPECIFIED
:DEGREES
286
root 0.495724 15.1785 7.45051 -5.43654 -2.28064 -2.16383
lowerback 15.0142 0.699448 -0.310985
upperback 6.15665 0.930737 1.89248
thorax -1.94252 0.434415 2.00346
lowerneck -10.1682 0.485402 0.0569884
upperneck 27.8655 0.721872 -0.184298
head 10.5963 0.313626 0.0102497
rclavicle 1.98785e-016 -5.56597e-015
rhumerus -11.3084 -1.16061 -81.7318
rradius 47.532
rwrist 21.7069
rhand -26.4715 -26.8753
rfingers 7.12502
rthumb 0.0903818 -56.855
lclavicle 1.98785e-016 -5.56597e-015
lhumerus -17.0819 -12.0713 81.3235
lradius 35.9896
lwrist 34.0938
lhand -26.5504 -10.4657
lfingers 7.12502
lthumb 0.0141343 19.514
rfemur -39.5167 -1.33774 21.5545
rtibia 66.8881
rfoot -18.5279 -2.03104
rtoes -2.30377
lfemur -37.6866 7.76698 -17.3274
ltibia 69.4054
lfoot -17.2815 9.34465
ltoes -18.0802
287
root 0.499555 15.2498 7.52988 -4.90066 -2.24314 -2.26336
lowerback 15.0819 0.700158 -0.306527
upperback 6.15958 0.933736 1.9301
thorax -1.97597 0.435581 2.03948
lowerneck -10.3415 0.456029 0.0503717
upperneck 27.4573 0.673183 -0.160164
head 10.4785 0.293925 0.0141713
rclavicle 4.67144e-015 2.10712e-014
rhumerus -10.9633 -0.687748 -81.687
rradius 49.2262
rwrist 21.0923
rhand -26.6605 -26.8312
rfingers 7.12502
rthumb -0.092145 -56.8109
lclavicle 4.67144e-015 2.10712e-014
lhumerus -16.7402 -12.0611 81.0941
lradius 36.9336
lwrist 35.5254
lhand -26.7035 -10.9099
lfingers 7.12502
lthumb -0.133721 19.0698
rfemur -39.4957 -1.30327 21.6324
rtibia 66.4393
rfoot -18.3034 -2.0048
rtoes -2.37055
lfemur -38.0937 7.84825 -17.314
ltibia 69.4344
lfoot -16.5974 8.84878
ltoes -17.8829
288
root 0.504193 15.3307 7.60174 -4.31982 -2.21966 -2.32423
lowerback 15.1567 0.717386 -0.330046
upperback 6.17134 0.953711 1.94557
thorax -2.00463 0.444974 2.0653
lowerneck -10.4995 0.423416 0.0440926
upperneck 27.0516 0.616206 -0.121074
head 10.3595 0.272148 0.0222947
rclavicle -8.34896e-015 2.08724e-014
rhumerus -10.6149 -0.328356 -81.631
rradius 50.7748
rwrist 20.5368
rhand -26.8298 -26.7907
rfingers 7.12502
rthumb -0.2557 -56.7703
lclavicle -8.34896e-015 2.08724e-014
lhumerus -16.3317 -12.0236 80.8542
lradius 37.6163
lwrist 36.8646
lhand -26.7589 -11.3441
lfingers 7.12502
lthumb -0.187223 18.6356
rfemur -39.4894 -1.22144 21.6546
rtibia 65.8564
rfoot -17.974 -1.93747
rtoes -2.44277
lfemur -38.5258 7.86068 -17.3192
ltibia 69.3096
lfoot -15.8429 8.21046
ltoes -17.3557
289
root 0.509723 15.42 7.66705 -3.72356 -2.21901 -2.34512
lowerback 15.2593 0.750848 -0.380718
upperback 6.19301 0.990255 1.93602
thorax -2.03834 0.462448 2.07729
lowerneck -10.6068 0.396041 0.0837509
upperneck 26.6402 0.564547 -0.109548
head 10.2296 0.254192 0.0132294
rclavicle -4.96962e-015 1.39149e-015
rhumerus -10.2708 -0.0525679 -81.5736
rradius 52.1554
rwrist 20.0896
rhand -26.9906 -26.7282
rfingers 7.12502
rthumb -0.411032 -56.7075
lclavicle -4.96962e-015 1.39149e-015
lhumerus -15.8748 -11.9631 80.6088
lradius 38.0189
lwrist 37.8624
lhand -26.7741 -11.703
lfingers 7.12502
lthumb -0.201889 18.2767
rfemur -39.4674 -1.10329 21.6191
rtibia 65.1486
rfoot -17.5624 -1.81427
rtoes -2.49205
lfemur -38.9203 7.81425 -17.3437
ltibia 69.0021
lfoot -15.0638 7.51289
ltoes -16.4833
290
root 0.516044 15.5159 7.72689 -3.13167 -2.23008 -2.32861
lowerback 15.3931 0.793569 -0.456089
upperback 6.22911 1.03435 1.90216
thorax -2.07362 0.483499 2.07623
lowerneck -10.6582 0.375933 0.183709
upperneck 26.2251 0.523309 -0.146457
head 10.0887 0.241283 -0.0220554
rclavicle -1.05853e-014 -1.90833e-014
rhumerus -9.92412 0.177159 -81.5213
rradius 53.3465
rwrist 19.7552
rhand -27.145 -26.6668
rfingers 7.12502
rthumb -0.560172 -56.6459
lclavicle -1.05853e-014 -1.90833e-014
lhumerus -15.404 -11.8813 80.372
lradius 38.1587
lwrist 38.3506
lhand -26.8218 -11.9853
lfingers 7.12502
lthumb -0.248 17.9943
rfemur -39.4079 -0.982148 21.531
rtibia 64.3256
rfoot -17.0961 -1.63701
rtoes -2.52131
lfemur -39.2268 7.70955 -17.3918
ltibia 68.4901
lfoot -14.2894 6.84829
ltoes -15.3623
291
root 0.522472 15.6166 7.78264 -2.55462 -2.2431 -2.30656
lowerback 15.5565 0.837531 -0.537286
upperback 6.27848 1.07855 1.86021
thorax -2.1105 0.504489 2.06965
lowerneck -10.6656 0.366309 0.31957
upperneck 25.8265 0.498714 -0.219079
head 9.94646 0.235214 -0.0738914
rclavicle 4.17448e-015 -1.0138e-014
rhumerus -9.58185 0.388925 -81.4761
rradius 54.3467
rwrist 19.5177
rhand -27.2943 -26.6577
rfingers 7.12502
rthumb -0.704369 -56.6363
lclavicle 4.17448e-015 -1.0138e-014
lhumerus -14.9578 -11.7812 80.1591
lradius 38.0766
lwrist 38.2686
lhand -26.9631 -12.2099
lfingers 7.12502
lthumb -0.384467 17.7694
rfemur -39.291 -0.874193 21.433
rtibia 63.3935
rfoot -16.5985 -1.4226
rtoes -2.49342
lfemur -39.413 7.56331 -17.436
ltibia 67.7634
lfoot -13.5456 6.29123
ltoes -14.1536
292
root 0.528515 15.7209 7.83588 -1.98401 -2.2485 -2.30071
lowerback 15.7228 0.876631 -0.611085
upperback 6.33778 1.11704 1.82121
thorax -2.13807 0.522566 2.06284
lowerneck -10.626 0.366874 0.479746
upperneck 25.4469 0.492203 -0.325503
head 9.8031 0.235788 -0.13933
rclavicle -9.19379e-015 -3.18055e-015
rhumerus -9.25016 0.599161 -81.4393
rradius 55.1579
rwrist 19.3465
rhand -27.4323 -26.6812
rfingers 7.12502
rthumb -0.837633 -56.6593
lclavicle -9.19379e-015 -3.18055e-015
lhumerus -14.5674 -11.6785 79.9776
lradius 37.8238
lwrist 37.679
lhand -27.2111 -12.3768
lfingers 7.12502
lthumb -0.623969 17.602
rfemur -39.1208 -0.789675 21.3565
rtibia 62.3623
rfoot -16.0863 -1.19299
rtoes -2.36774
lfemur -39.4785 7.39465 -17.466
ltibia 66.826
lfoot -12.8498 5.88766
ltoes -12.9778
293
root 0.534188 15.8276 7.88833 -1.40047 -2.23465 -2.31336
lowerback 15.8563 0.903971 -0.68174
upperback 6.40014 1.14067 1.79388
thorax -2.14446 0.533028 2.06927
lowerneck -10.5715 0.376666 0.61811
upperneck 25.1211 0.503363 -0.432035
head 9.677 0.242249 -0.198731
rclavicle 2.18663e-015 2.38542e-015
rhumerus -8.94017 0.823398 -81.4119
rradius 55.7952
rwrist 19.2176
rhand -27.5678 -26.7541
rfingers 7.12502
rthumb -0.96846 -56.7317
lclavicle 2.18663e-015 2.38542e-015
lhumerus -14.2633 -11.5621 79.8352
lradius 37.4597
lwrist 36.7187
lhand -27.5282 -12.5146
lfingers 7.12502
lthumb -0.930218 17.4632
rfemur -38.9155 -0.746787 21.3087
rtibia 61.2449
rfoot -15.5744 -0.962844
rtoes -2.12275
lfemur -39.4353 7.21387 -17.4955
ltibia 65.6916
lfoot -12.2159 5.66713
ltoes -11.9269
